#!OML:ASF F:\VICON\USERDATA\Patient Classification 1\PLAYGROUND\JustinFriday\JustinFriday.ASF
:FULLY-SPECIFIED
:DEGREES
2325
root 12.3493 17.4438 -13.1937 170.605 -54.5667 -174.117
lowerback 20.7961 4.73803 4.94351
upperback -1.192 7.45531 -0.0859489
thorax -12.3478 3.10047 -5.1541
lowerneck 16.1671 -22.7673 -10.9805
upperneck -16.5362 -30.6106 22.8414
head -2.11109 -16.5714 9.18726
rclavicle -4.83295e-014 -2.00773e-014
rhumerus -28.4498 -21.4411 -30.9607
rradius 86.0421
rwrist 18.8056
rhand -65.1483 -28.8051
rfingers 7.12502
rthumb -37.038 -54.8598
lclavicle -4.83295e-014 -2.00773e-014
lhumerus -61.8777 38.8764 18.2644
lradius 91.3125
lwrist -4.47272
lhand -55.6525 -14.4393
lfingers 7.12502
lthumb -28.0041 13.4913
rfemur -9.16079 -2.98501 13.8581
rtibia 37.4163
rfoot -17.406 -10.2697
rtoes -7.71276
lfemur -5.37462 -8.97448 -8.35773
ltibia 39.8092
lfoot -16.8091 -4.1531
ltoes -12.1525
2326
root 12.3741 17.4694 -13.2601 170.282 -54.5614 -173.661
lowerback 20.7217 4.68476 5.09993
upperback -1.26404 7.4259 -0.0875747
thorax -12.372 3.07533 -5.23124
lowerneck 16.1649 -22.7763 -11.0749
upperneck -16.4236 -30.6542 23.1421
head -2.00202 -16.6185 9.24681
rclavicle -1.01194e-013 -6.36111e-015
rhumerus -28.8114 -21.2284 -31.5954
rradius 86.4785
rwrist 19.1748
rhand -66.0214 -32.3054
rfingers 7.12502
rthumb -37.8632 -58.1418
lclavicle -1.01194e-013 -6.36111e-015
lhumerus -61.2459 38.5999 17.4861
lradius 90.627
lwrist -11.5382
lhand -56.7354 -20.7392
lfingers 7.12502
lthumb -29.0388 7.01783
rfemur -9.01128 -3.65082 14.445
rtibia 36.8641
rfoot -16.3113 -10.427
rtoes -9.68185
lfemur -5.25348 -9.08166 -7.80124
ltibia 39.4475
lfoot -16.2283 -5.13198
ltoes -9.95487
2327
root 12.4026 17.4886 -13.3231 169.877 -54.4713 -173.12
lowerback 20.6431 4.73965 5.30275
upperback -1.25599 7.54389 -0.0853967
thorax -12.279 3.12279 -5.36412
lowerneck 15.5655 -23.1209 -10.8207
upperneck -15.9546 -31.1021 22.9932
head -1.76613 -16.8105 9.01193
rclavicle -1.14587e-013 1.98785e-016
rhumerus -29.3642 -22.0031 -31.6372
rradius 87.7529
rwrist 22.3993
rhand -60.5965 -31.9833
rfingers 7.12502
rthumb -32.7195 -59.0423
lclavicle -1.14587e-013 1.98785e-016
lhumerus -60.1863 38.5337 16.9331
lradius 89.6516
lwrist -19.1081
lhand -58.4244 -27.2831
lfingers 7.12502
lthumb -30.6506 0.184414
rfemur -8.85651 -4.14224 15.1255
rtibia 36.3222
rfoot -15.3432 -10.5977
rtoes -10.907
lfemur -5.10222 -9.22148 -7.20137
ltibia 39.113
lfoot -16.0638 -4.62011
ltoes -11.1867
2328
root 12.4309 17.5057 -13.3809 169.092 -54.2309 -172.185
lowerback 20.6654 4.77149 5.78478
upperback -1.20915 7.71935 0.0691167
thorax -12.1778 3.18345 -5.50554
lowerneck 16.058 -23.1378 -10.0602
upperneck -17.4841 -30.8404 23.276
head -2.4043 -16.7843 9.29141
rclavicle 3.64273e-014 -1.45113e-014
rhumerus -29.4039 -21.8323 -31.8761
rradius 88.3402
rwrist 22.472
rhand -60.9509 -33.2484
rfingers 7.12502
rthumb -33.0566 -60.2367
lclavicle 3.64273e-014 -1.45113e-014
lhumerus -59.5423 38.7033 16.1288
lradius 88.9352
lwrist -26.0582
lhand -59.3804 -33.6697
lfingers 7.12502
lthumb -31.5618 -6.37684
rfemur -8.66464 -4.18749 16.0711
rtibia 35.8911
rfoot -14.8557 -10.6126
rtoes -9.97315
lfemur -4.82417 -9.32632 -6.36087
ltibia 38.7692
lfoot -15.8552 -3.92313
ltoes -11.9064
2329
root 12.4556 17.528 -13.4359 168.684 -54.0277 -171.754
lowerback 20.6785 4.7712 5.93082
upperback -1.1379 7.7731 0.280532
thorax -12.1096 3.21 -5.36227
lowerneck 12.6978 -23.8921 -11.4496
upperneck -12.9173 -32.4311 21.6104
head -0.387477 -17.1672 7.86686
rclavicle -9.56651e-015 -5.96354e-016
rhumerus -29.2064 -21.3825 -32.2058
rradius 88.9137
rwrist 22.43
rhand -61.4782 -34.3839
rfingers 7.12502
rthumb -33.5579 -61.2647
lclavicle -9.56651e-015 -5.96354e-016
lhumerus -59.6923 38.918 14.9249
lradius 88.5186
lwrist -32.3263
lhand -60.2853 -38.5869
lfingers 7.12502
lthumb -32.4234 -11.4668
rfemur -8.45597 -3.98491 16.6432
rtibia 35.5509
rfoot -14.5473 -10.6278
rtoes -8.27352
lfemur -4.50195 -9.5283 -5.93199
ltibia 38.4107
lfoot -15.3184 -3.65601
ltoes -11.497
2330
root 12.4798 17.5489 -13.4933 168.609 -53.8667 -171.737
lowerback 20.6007 4.76779 5.78309
upperback -1.03765 7.73471 0.427515
thorax -11.9956 3.2146 -5.09145
lowerneck 14.2857 -23.2558 -10.6363
upperneck -15.9568 -31.194 22.6143
head -1.65743 -16.784 8.71437
rclavicle 6.29216e-014 -3.97569e-015
rhumerus -28.9646 -20.9663 -32.7125
rradius 89.4666
rwrist 22.4496
rhand -61.5901 -34.2671
rfingers 7.12502
rthumb -33.6643 -61.1248
lclavicle 6.29216e-014 -3.97569e-015
lhumerus -59.8532 39.1045 13.5799
lradius 88.286
lwrist -37.4229
lhand -61.1798 -43.2025
lfingers 7.12502
lthumb -33.2742 -16.2606
rfemur -8.23534 -3.78468 16.9285
rtibia 35.2365
rfoot -14.321 -10.7142
rtoes -7.57047
lfemur -4.19425 -9.74947 -5.80844
ltibia 38.074
lfoot -14.7799 -3.1993
ltoes -12.1304
2331
root 12.5022 17.5734 -13.556 168.232 -53.6091 -171.432
lowerback 20.5853 4.73328 5.92744
upperback -0.93009 7.71176 0.430427
thorax -11.847 3.20393 -5.15124
lowerneck 11.6614 -23.4552 -10.4079
upperneck -12.8579 -31.6335 20.9849
head -0.607725 -16.7319 7.62218
rclavicle 2.79789e-014 -1.98785e-015
rhumerus -28.8351 -20.8171 -33.4816
rradius 90.0245
rwrist 22.7053
rhand -61.3454 -34.1581
rfingers 7.12502
rthumb -33.4317 -61.0662
lclavicle 2.79789e-014 -1.98785e-015
lhumerus -58.9459 39.1936 12.2819
lradius 87.6861
lwrist -40.3619
lhand -61.6592 -48.4413
lfingers 7.12502
lthumb -33.7299 -21.598
rfemur -7.88749 -3.75008 17.4188
rtibia 34.9099
rfoot -14.2499 -10.5993
rtoes -7.04001
lfemur -3.78721 -9.86004 -5.46201
ltibia 37.7426
lfoot -14.3492 -2.82774
ltoes -12.9886
